<svg xmlns="http://www.w3.org/2000/svg" width="11.938" height="11" viewBox="0 0 11.938 11">
  <metadata><?xpacket begin="﻿" id="W5M0MpCehiHzreSzNTczkc9d"?>
<x:xmpmeta xmlns:x="adobe:ns:meta/" x:xmptk="Adobe XMP Core 5.6-c138 79.159824, 2016/09/14-01:09:01        ">
   <rdf:RDF xmlns:rdf="http://www.w3.org/1999/02/22-rdf-syntax-ns#">
      <rdf:Description rdf:about=""
            xmlns:xmp="http://ns.adobe.com/xap/1.0/"
            xmlns:xmpRights="http://ns.adobe.com/xap/1.0/rights/">
         <xmp:CreatorTool>Adobe Photoshop CS5.1 Windows</xmp:CreatorTool>
         <xmpRights:Marked>False</xmpRights:Marked>
      </rdf:Description>
   </rdf:RDF>
</x:xmpmeta>
                                                                                                    
                                                                                                    
                                                                                                    
                                                                                                    
                                                                                                    
                                                                                                    
                                                                                                    
                                                                                                    
                                                                                                    
                                                                                                    
                                                                                                    
                                                                                                    
                                                                                                    
                                                                                                    
                                                                                                    
                                                                                                    
                                                                                                    
                                                                                                    
                                                                                                    
                                                                                                    
                           
<?xpacket end="w"?></metadata>
<defs>
    <style>
      .cls-1 {
        fill: #ffe987;
        fill-rule: evenodd;
      }
    </style>
  </defs>
  <path id="Shape_129_copy_2" data-name="Shape 129 copy 2" class="cls-1" d="M51,850a1,1,0,1,1-1,1A1,1,0,0,1,51,850ZM46,859a1,1,0,1,1-1,1A1,1,0,0,1,46,859Zm9.963,0A1,1,0,1,1,55,860,0.981,0.981,0,0,1,55.967,859Zm-5.9-8.251-4.937,8.781L46,861H56l0.781-1.531L52,850.75H50.063Zm0.9,2.828a0.6,0.6,0,0,1,.6.6v2.386a0.6,0.6,0,0,1-1.193,0v-2.386A0.6,0.6,0,0,1,50.963,853.578Zm0,4.175a0.6,0.6,0,1,1-.6.6A0.6,0.6,0,0,1,50.963,857.753Z" transform="translate(-45 -850)"/>
</svg>
