<svg xmlns="http://www.w3.org/2000/svg" width="11.938" height="11" viewBox="0 0 11.938 11">
  <path fill="#4f3f00" fill-rule="evenodd" d="M51,850a1,1,0,1,1-1,1A1,1,0,0,1,51,850ZM46,859a1,1,0,1,1-1,1A1,1,0,0,1,46,859Zm9.963,0A1,1,0,1,1,55,860,0.981,0.981,0,0,1,55.967,859Zm-5.9-8.251-4.937,8.781L46,861H56l0.781-1.531L52,850.75H50.063Zm0.9,2.828a0.6,0.6,0,0,1,.6.6v2.386a0.6,0.6,0,0,1-1.193,0v-2.386A0.6,0.6,0,0,1,50.963,853.578Zm0,4.175a0.6,0.6,0,1,1-.6.6A0.6,0.6,0,0,1,50.963,857.753Z" transform="translate(-45 -850)"/>
</svg>
