<svg xmlns="http://www.w3.org/2000/svg" width="12" height="13" viewBox="0 0 12 13">
  <path fill-rule="evenodd"  fill="rgb(79, 63, 0)"
 d="M9.000,3.000 C9.000,3.552 8.552,4.000 8.000,4.000 L2.000,4.000 C1.448,4.000 1.000,3.552 1.000,3.000 L-0.000,1.000 C-0.000,0.448 0.448,-0.000 1.000,-0.000 L9.000,-0.000 C9.552,-0.000 10.000,0.448 10.000,1.000 L9.000,3.000 ZM3.000,5.000 L7.000,5.000 C7.552,5.000 8.000,5.448 8.000,6.000 C8.000,6.552 7.552,7.000 7.000,7.000 L6.000,7.000 L7.000,11.000 C7.000,11.552 5.552,12.000 5.000,12.000 C4.448,12.000 3.000,11.552 3.000,11.000 L4.000,7.000 L3.000,7.000 C2.448,7.000 2.000,6.552 2.000,6.000 C2.000,5.448 2.448,5.000 3.000,5.000 Z"/>
</svg>
