<svg xmlns="http://www.w3.org/2000/svg" width="10" height="12" viewBox="0 0 10 12">
  <metadata><?xpacket begin="﻿" id="W5M0MpCehiHzreSzNTczkc9d"?>
<x:xmpmeta xmlns:x="adobe:ns:meta/" x:xmptk="Adobe XMP Core 5.6-c138 79.159824, 2016/09/14-01:09:01        ">
   <rdf:RDF xmlns:rdf="http://www.w3.org/1999/02/22-rdf-syntax-ns#">
      <rdf:Description rdf:about=""
            xmlns:xmp="http://ns.adobe.com/xap/1.0/"
            xmlns:xmpRights="http://ns.adobe.com/xap/1.0/rights/">
         <xmp:CreatorTool>Adobe Photoshop CS5.1 Windows</xmp:CreatorTool>
         <xmpRights:Marked>False</xmpRights:Marked>
      </rdf:Description>
   </rdf:RDF>
</x:xmpmeta>
                                                                                                    
                                                                                                    
                                                                                                    
                                                                                                    
                                                                                                    
                                                                                                    
                                                                                                    
                                                                                                    
                                                                                                    
                                                                                                    
                                                                                                    
                                                                                                    
                                                                                                    
                                                                                                    
                                                                                                    
                                                                                                    
                                                                                                    
                                                                                                    
                                                                                                    
                                                                                                    
                           
<?xpacket end="w"?></metadata>
<defs>
    <style>
      .cls-1 {
        fill: #4f3f00;
        fill-rule: evenodd;
      }
    </style>
  </defs>
  <path class="cls-1" d="M46,417h8a1,1,0,0,1,1,1l-1,2a1,1,0,0,1-1,1H47a1,1,0,0,1-1-1l-1-2A1,1,0,0,1,46,417Zm2,5h4a1,1,0,0,1,0,2H48A1,1,0,0,1,48,422Zm2,1a1,1,0,0,1,1,1l1,4c0,0.552-1.448,1-2,1s-2-.448-2-1l1-4A1,1,0,0,1,50,423Z" transform="translate(-45 -417)"/>
</svg>
