<svg xmlns="http://www.w3.org/2000/svg" width="12px" height="11px" viewBox="0 0 12 11">
<path fill-rule="evenodd"  fill="rgb(79, 63, 0)" d="M9.000,11.000 L6.000,11.000 L6.000,7.000 L4.000,7.000 L4.000,11.000 L1.000,11.000 C0.448,11.000 -0.000,10.552 -0.000,10.000 L-0.000,5.000 C-0.000,4.699 0.139,4.438 0.349,4.255 C0.364,4.238 0.369,4.215 0.386,4.199 L4.293,1.261 C4.683,0.870 5.316,0.870 5.707,1.261 L9.583,4.199 C9.588,4.204 9.589,4.212 9.595,4.217 C9.835,4.400 10.000,4.675 10.000,5.000 L10.000,10.000 C10.000,10.552 9.552,11.000 9.000,11.000 Z"/>
</svg>
