<svg xmlns="http://www.w3.org/2000/svg" width="10" height="10" viewBox="0 0 10 10">
  <path fill-rule="evenodd"  fill="rgb(79, 63, 0)" d="M9.000,5.000 L6.000,5.000 C5.448,5.000 5.000,4.552 5.000,4.000 L5.000,1.000 C5.000,0.448 5.448,-0.000 6.000,-0.000 L9.000,-0.000 C9.552,-0.000 10.000,0.448 10.000,1.000 L10.000,4.000 C10.000,4.552 9.552,5.000 9.000,5.000 ZM3.000,10.000 L1.000,10.000 C0.448,10.000 -0.000,9.552 -0.000,9.000 L-0.000,7.000 C-0.000,6.448 0.448,6.000 1.000,6.000 L3.000,6.000 C3.552,6.000 4.000,6.448 4.000,7.000 L4.000,9.000 C4.000,9.552 3.552,10.000 3.000,10.000 ZM3.000,5.000 L1.000,5.000 C0.448,5.000 -0.000,4.552 -0.000,4.000 L-0.000,2.000 C-0.000,1.448 0.448,1.000 1.000,1.000 L3.000,1.000 C3.552,1.000 4.000,1.448 4.000,2.000 L4.000,4.000 C4.000,4.552 3.552,5.000 3.000,5.000 ZM6.000,6.000 L8.000,6.000 C8.552,6.000 9.000,6.448 9.000,7.000 L9.000,9.000 C9.000,9.552 8.552,10.000 8.000,10.000 L6.000,10.000 C5.448,10.000 5.000,9.552 5.000,9.000 L5.000,7.000 C5.000,6.448 5.448,6.000 6.000,6.000 Z"/>
</svg>
