<svg xmlns="http://www.w3.org/2000/svg" width="12" height="11.031" viewBox="0 0 12 11.031">
  <metadata><?xpacket begin="﻿" id="W5M0MpCehiHzreSzNTczkc9d"?>
<x:xmpmeta xmlns:x="adobe:ns:meta/" x:xmptk="Adobe XMP Core 5.6-c138 79.159824, 2016/09/14-01:09:01        ">
   <rdf:RDF xmlns:rdf="http://www.w3.org/1999/02/22-rdf-syntax-ns#">
      <rdf:Description rdf:about=""
            xmlns:xmp="http://ns.adobe.com/xap/1.0/"
            xmlns:xmpRights="http://ns.adobe.com/xap/1.0/rights/">
         <xmp:CreatorTool>Adobe Photoshop CS5.1 Windows</xmp:CreatorTool>
         <xmpRights:Marked>False</xmpRights:Marked>
      </rdf:Description>
   </rdf:RDF>
</x:xmpmeta>
                                                                                                    
                                                                                                    
                                                                                                    
                                                                                                    
                                                                                                    
                                                                                                    
                                                                                                    
                                                                                                    
                                                                                                    
                                                                                                    
                                                                                                    
                                                                                                    
                                                                                                    
                                                                                                    
                                                                                                    
                                                                                                    
                                                                                                    
                                                                                                    
                                                                                                    
                                                                                                    
                           
<?xpacket end="w"?></metadata>
<defs>
    <style>
      .cls-1 {
        fill: #cfc38f;
        fill-rule: evenodd;
      }
    </style>
  </defs>
  <path class="cls-1" d="M738,40h10a1,1,0,0,1,1,1v5a1,1,0,0,1-1,1H738a1,1,0,0,1-1-1V41A1,1,0,0,1,738,40Zm5.707-3.739,4.876,3.938a1,1,0,0,1,0,1.414l-4.876,4.751a1,1,0,0,1-1.414,0l-4.907-4.751a1,1,0,0,1,0-1.414l4.907-3.938A1,1,0,0,1,743.707,36.261Zm-4.925,8.4,3.848-2.65a0.5,0.5,0,1,1,.592.806l-3.848,2.65A0.5,0.5,0,1,1,738.782,44.665Zm8.436,0-3.848-2.65a0.5,0.5,0,1,0-.592.806l3.848,2.65A0.5,0.5,0,1,0,747.218,44.665Zm-5.562-1.75-2.38-1.744a0.5,0.5,0,1,0-.592.806l2.379,1.744A0.5,0.5,0,0,0,741.656,42.915Zm2.657,0,2.379-1.744a0.5,0.5,0,0,1,.593.806l-2.38,1.744A0.5,0.5,0,1,1,744.313,42.915Z" transform="translate(-737 -35.969)"/>
</svg>
