<svg xmlns="http://www.w3.org/2000/svg" width="11" height="11" viewBox="0 0 11 11">
  <metadata><?xpacket begin="﻿" id="W5M0MpCehiHzreSzNTczkc9d"?>
<x:xmpmeta xmlns:x="adobe:ns:meta/" x:xmptk="Adobe XMP Core 5.6-c138 79.159824, 2016/09/14-01:09:01        ">
   <rdf:RDF xmlns:rdf="http://www.w3.org/1999/02/22-rdf-syntax-ns#">
      <rdf:Description rdf:about=""
            xmlns:xmp="http://ns.adobe.com/xap/1.0/"
            xmlns:xmpRights="http://ns.adobe.com/xap/1.0/rights/">
         <xmp:CreatorTool>Adobe Photoshop CS5.1 Windows</xmp:CreatorTool>
         <xmpRights:Marked>False</xmpRights:Marked>
      </rdf:Description>
   </rdf:RDF>
</x:xmpmeta>
                                                                                                    
                                                                                                    
                                                                                                    
                                                                                                    
                                                                                                    
                                                                                                    
                                                                                                    
                                                                                                    
                                                                                                    
                                                                                                    
                                                                                                    
                                                                                                    
                                                                                                    
                                                                                                    
                                                                                                    
                                                                                                    
                                                                                                    
                                                                                                    
                                                                                                    
                                                                                                    
                           
<?xpacket end="w"?></metadata>
<defs>
    <style>
      .cls-1 {
        fill: #4f3f00;
        fill-rule: evenodd;
      }
    </style>
  </defs>
  <path class="cls-1" d="M45,349h1a1,1,0,0,1,1,1v3a1,1,0,0,1-1,1H45a1,1,0,0,1-1-1v-3A1,1,0,0,1,45,349Zm4-6h1a1,1,0,0,1,1,1v9a1,1,0,0,1-1,1H49a1,1,0,0,1-1-1v-9A1,1,0,0,1,49,343Zm4,4h1a1,1,0,0,1,1,1v5a1,1,0,0,1-1,1H53a1,1,0,0,1-1-1v-5A1,1,0,0,1,53,347Z" transform="translate(-44 -343)"/>
</svg>
