<svg xmlns="http://www.w3.org/2000/svg" width="11" height="11" viewBox="0 0 11 11">
  <path fill-rule="evenodd"  fill="rgb(79, 63, 0)" d="M10.000,11.000 L9.000,11.000 C8.448,11.000 8.000,10.552 8.000,10.000 L8.000,5.000 C8.000,4.448 8.448,4.000 9.000,4.000 L10.000,4.000 C10.552,4.000 11.000,4.448 11.000,5.000 L11.000,10.000 C11.000,10.552 10.552,11.000 10.000,11.000 ZM6.000,11.000 L5.000,11.000 C4.448,11.000 4.000,10.552 4.000,10.000 L4.000,1.000 C4.000,0.448 4.448,-0.000 5.000,-0.000 L6.000,-0.000 C6.552,-0.000 7.000,0.448 7.000,1.000 L7.000,10.000 C7.000,10.552 6.552,11.000 6.000,11.000 ZM2.000,11.000 L1.000,11.000 C0.448,11.000 -0.000,10.552 -0.000,10.000 L-0.000,7.000 C-0.000,6.448 0.448,6.000 1.000,6.000 L2.000,6.000 C2.552,6.000 3.000,6.448 3.000,7.000 L3.000,10.000 C3.000,10.552 2.552,11.000 2.000,11.000 Z"/>
</svg>
