<svg xmlns="http://www.w3.org/2000/svg" xmlns:xlink="http://www.w3.org/1999/xlink" width="12px" height="11px" viewBox="0 0 12 11">
  <path fill-rule="evenodd"  fill="rgb(255, 233, 135)" d="M11.932,9.997 C11.932,10.532 11.521,10.961 11.008,10.984 L11.000,11.000 L1.000,11.000 L0.995,10.991 C0.444,10.985 -0.000,10.543 -0.000,9.997 C-0.000,9.828 0.053,9.676 0.128,9.537 L0.125,9.531 L5.033,0.802 C5.130,0.347 5.514,-0.000 5.997,-0.000 C6.461,-0.000 6.835,0.322 6.950,0.750 L7.000,0.750 L11.781,9.469 L11.774,9.483 C11.865,9.636 11.932,9.805 11.932,9.997 ZM6.560,4.174 C6.560,3.845 6.293,3.578 5.963,3.578 C5.634,3.578 5.367,3.845 5.367,4.174 L5.367,6.560 C5.367,6.889 5.634,7.156 5.963,7.156 C6.293,7.156 6.560,6.889 6.560,6.560 L6.560,4.174 ZM5.963,7.753 C5.634,7.753 5.367,8.020 5.367,8.349 C5.367,8.678 5.634,8.945 5.963,8.945 C6.293,8.945 6.560,8.678 6.560,8.349 C6.560,8.020 6.293,7.753 5.963,7.753 Z"/>
</svg>
