<svg xmlns="http://www.w3.org/2000/svg" width="12" height="10" viewBox="0 0 12 10">
  <path fill-rule="evenodd" fill="rgb(79, 63, 0)" d="M9.000,9.000 L1.000,9.000 C0.448,9.000 -0.000,8.552 -0.000,8.000 L-0.000,4.000 L10.000,4.000 L10.000,8.000 C10.000,8.552 9.552,9.000 9.000,9.000 ZM-0.000,2.000 C-0.000,1.448 0.448,1.000 1.000,1.000 L2.000,1.000 C2.000,0.448 2.448,-0.000 3.000,-0.000 C3.552,-0.000 4.000,0.448 4.000,1.000 L6.000,1.000 C6.000,0.448 6.448,-0.000 7.000,-0.000 C7.552,-0.000 8.000,0.448 8.000,1.000 L9.000,1.000 C9.552,1.000 10.000,1.448 10.000,2.000 L10.000,3.000 L-0.000,3.000 L-0.000,2.000 Z"/>
</svg>
