<svg xmlns="http://www.w3.org/2000/svg" width="12" height="11.031" viewBox="0 0 12 11.031">
  <path fill-rule="evenodd" fill="rgb(207, 195, 143)" d="M11.000,12.000 L1.000,12.000 C0.448,12.000 -0.000,11.552 -0.000,11.000 L-0.000,6.000 C-0.000,5.699 0.139,5.438 0.349,5.255 C0.364,5.238 0.369,5.215 0.386,5.199 L5.293,1.261 C5.683,0.870 6.316,0.870 6.707,1.261 L11.583,5.199 C11.588,5.204 11.589,5.212 11.595,5.217 C11.835,5.400 12.000,5.675 12.000,6.000 L12.000,11.000 C12.000,11.552 11.552,12.000 11.000,12.000 ZM10.391,6.278 C10.228,6.055 9.915,6.007 9.692,6.171 L7.489,7.786 L6.370,7.015 C6.260,6.934 6.127,6.905 6.002,6.923 C6.001,6.923 6.001,6.923 6.000,6.923 C5.999,6.923 5.999,6.923 5.998,6.923 C5.873,6.905 5.740,6.934 5.630,7.015 L4.494,7.797 L2.276,6.171 C2.054,6.007 1.741,6.055 1.577,6.278 C1.414,6.500 1.462,6.813 1.684,6.977 L3.622,8.397 L1.782,9.665 C1.559,9.828 1.511,10.141 1.675,10.364 C1.839,10.586 2.151,10.634 2.374,10.471 L6.000,7.973 L9.626,10.471 C9.848,10.634 10.161,10.586 10.325,10.364 C10.488,10.141 10.441,9.828 10.218,9.665 L8.361,8.386 L10.285,6.977 C10.507,6.813 10.555,6.500 10.391,6.278 Z"/>
</svg>
