<svg xmlns="http://www.w3.org/2000/svg" width="10" height="14" viewBox="0 0 10 14">
  <path fill-rule="evenodd"  fill="rgb(79, 63, 0)" d="M8.985,8.000 L9.000,8.000 L5.000,14.000 L1.000,8.000 L1.030,8.000 C0.395,7.161 0.004,6.128 0.004,4.995 C0.004,2.232 2.244,-0.008 5.007,-0.008 C7.771,-0.008 10.011,2.232 10.011,4.995 C10.011,6.128 9.620,7.161 8.985,8.000 ZM4.991,4.002 C4.430,4.002 3.976,4.449 3.976,5.001 C3.976,5.553 4.430,6.000 4.991,6.000 C5.551,6.000 6.006,5.553 6.006,5.001 C6.006,4.449 5.551,4.002 4.991,4.002 Z"/>
</svg>
