<svg 
 xmlns="http://www.w3.org/2000/svg"
 xmlns:xlink="http://www.w3.org/1999/xlink"
 width="14px" height="13px">
<path fill-rule="evenodd"  fill="rgb(255, 233, 135)"
 d="M13.364,1.707 L8.309,6.329 L13.363,10.950 C13.754,11.340 13.754,11.973 13.363,12.364 C12.973,12.754 12.340,12.754 11.949,12.364 L6.828,7.682 L1.707,12.364 C1.316,12.754 0.683,12.754 0.293,12.364 C-0.098,11.973 -0.098,11.340 0.293,10.950 L5.347,6.329 L0.292,1.707 C-0.098,1.316 -0.098,0.683 0.292,0.293 C0.683,-0.098 1.316,-0.098 1.707,0.293 L6.828,4.975 L11.950,0.293 C12.340,-0.098 12.973,-0.098 13.364,0.293 C13.754,0.683 13.754,1.316 13.364,1.707 Z"/>
</svg>