<svg xmlns="http://www.w3.org/2000/svg" width="379.312" height="355.094" viewBox="0 0 379.312 355.094">
  <metadata><?xpacket begin="﻿" id="W5M0MpCehiHzreSzNTczkc9d"?>
<x:xmpmeta xmlns:x="adobe:ns:meta/" x:xmptk="Adobe XMP Core 5.6-c138 79.159824, 2016/09/14-01:09:01        ">
   <rdf:RDF xmlns:rdf="http://www.w3.org/1999/02/22-rdf-syntax-ns#">
      <rdf:Description rdf:about=""
            xmlns:xmp="http://ns.adobe.com/xap/1.0/"
            xmlns:xmpRights="http://ns.adobe.com/xap/1.0/rights/">
         <xmp:CreatorTool>Adobe Photoshop CS5.1 Windows</xmp:CreatorTool>
         <xmpRights:Marked>False</xmpRights:Marked>
      </rdf:Description>
   </rdf:RDF>
</x:xmpmeta>
                                                                                                    
                                                                                                    
                                                                                                    
                                                                                                    
                                                                                                    
                                                                                                    
                                                                                                    
                                                                                                    
                                                                                                    
                                                                                                    
                                                                                                    
                                                                                                    
                                                                                                    
                                                                                                    
                                                                                                    
                                                                                                    
                                                                                                    
                                                                                                    
                                                                                                    
                                                                                                    
                           
<?xpacket end="w"?></metadata>
<defs>
    <style>
      .cls-1 {
        fill: #3c2821;
        fill-rule: evenodd;
      }
    </style>
  </defs>
  <path class="cls-1" d="M439.607,238.3V223.671a23.294,23.294,0,0,1,23.224-23.223h13.211v14.631A23.294,23.294,0,0,1,452.819,238.3H439.607Zm41.1,47.054-14.622-.627a23.291,23.291,0,0,1-22.2-24.194l0.566-13.2,14.611,0.625a23.294,23.294,0,0,1,22.216,24.2l-0.566,13.2h0Zm41.056-60.411-6.73,12.988a23.292,23.292,0,0,1-31.311,9.92L472,241.773l6.729-12.985a23.294,23.294,0,0,1,31.312-9.919l11.72,6.078h0ZM507,284.082l-8.118-2.132a13.368,13.368,0,0,1-9.518-16.281l1.924-7.334,8.129,2.132a13.37,13.37,0,0,1,9.507,16.281L507,284.082h0Zm29.151-16.5-8.036,2.441a13.376,13.376,0,0,1-16.639-8.88l-2.2-7.255,8.037-2.44a13.371,13.371,0,0,1,16.638,8.879l2.2,7.255h0Zm-5.865,41.251-7.624-3.532a13.366,13.366,0,0,1-6.483-17.706l3.19-6.881,7.614,3.537a13.377,13.377,0,0,1,6.493,17.7l-3.19,6.878h0Zm-79.056-18.128,8.448,11.944a23.294,23.294,0,0,1-5.546,32.372l-10.783,7.624L434.9,330.705a23.3,23.3,0,0,1,5.547-32.374l10.783-7.625h0Zm-60.719-14.689,12.3-7.927a23.292,23.292,0,0,1,32.1,6.93l7.151,11.1-12.3,7.929a23.293,23.293,0,0,1-32.1-6.93l-7.151-11.1h0Zm1.358,73.029-2-14.493a23.283,23.283,0,0,1,19.828-26.177l13.078-1.8,2.007,14.49a23.3,23.3,0,0,1-19.839,26.183l-13.078,1.8h0Zm-22.1-56.8,7.861-2.95a13.375,13.375,0,0,1,17.173,7.8l2.666,7.1-7.862,2.952a13.374,13.374,0,0,1-17.173-7.8l-2.665-7.1h0ZM355.5,322.55l5.155-6.637a13.37,13.37,0,0,1,18.707-2.353l5.988,4.653-5.145,6.632a13.381,13.381,0,0,1-18.716,2.356L355.5,322.55h0Zm-19.491-36,9.5-2.269a15.534,15.534,0,0,1,18.668,11.473l2.048,8.571-9.487,2.269a15.544,15.544,0,0,1-18.679-11.476l-2.047-8.568h0ZM332.6,308.4l1.229,14.58a23.289,23.289,0,0,1-21.194,25.087l-13.161,1.106L298.244,334.6a23.291,23.291,0,0,1,21.195-25.089L332.6,308.4h0ZM290.558,264.81l14.63,0.113a23.29,23.29,0,0,1,23.041,23.4l-0.1,13.207-14.63-.116a23.292,23.292,0,0,1-23.041-23.4l0.1-13.2h0ZM251.851,328.6l5.623-13.506a23.294,23.294,0,0,1,30.368-12.515l12.193,5.078-5.623,13.508a23.291,23.291,0,0,1-30.368,12.508L251.851,328.6h0Zm9.747-60.164,8.273,1.44A13.376,13.376,0,0,1,280.718,285.3l-1.3,7.47-8.275-1.443a13.373,13.373,0,0,1-10.848-15.424l1.3-7.47h0Zm-27.661,18.884,7.8-3.108a13.375,13.375,0,0,1,17.32,7.455l2.8,7.044-7.8,3.11a13.378,13.378,0,0,1-17.321-7.455l-2.8-7.046h0ZM480.8,314.967a10.82,10.82,0,1,1,10.824-10.82,10.822,10.822,0,0,1-10.824,10.82h0ZM349.636,355.081a10.82,10.82,0,1,1,10.823-10.819,10.822,10.822,0,0,1-10.823,10.819h0Zm23.757-2.238a8.319,8.319,0,1,1,8.314-8.319,8.321,8.321,0,0,1-8.314,8.319h0Zm-26.921-31.594a5.754,5.754,0,1,1,5.752-5.752,5.754,5.754,0,0,1-5.752,5.752h0ZM243.184,247.06a7.755,7.755,0,1,1,7.756-7.753,7.752,7.752,0,0,1-7.756,7.753h0Zm186.668,13.616a5.752,5.752,0,1,1,5.752-5.752,5.757,5.757,0,0,1-5.752,5.752h0ZM252.8,23.025a10.647,10.647,0,1,1-10.647,10.647A10.646,10.646,0,0,1,252.8,23.025h0Zm36.168,0.481a13.431,13.431,0,1,1-13.428,13.431,13.431,13.431,0,0,1,13.428-13.431h0Zm16.2-29.117A13.773,13.773,0,1,1,291.391,8.162,13.772,13.772,0,0,1,305.164-5.611h0ZM272.428,6.86a9.235,9.235,0,1,1-9.235,9.235,9.233,9.233,0,0,1,9.235-9.235h0Zm55.816,10.423A11.612,11.612,0,1,1,316.632,28.9a11.612,11.612,0,0,1,11.612-11.612h0Zm5.145-29.69a9.236,9.236,0,0,1,9.235,9.238,9.236,9.236,0,0,1-9.235,9.237,9.239,9.239,0,0,1-9.238-9.237,9.239,9.239,0,0,1,9.238-9.238h0Zm25.032,18.13a13.238,13.238,0,1,1-13.237,13.238A13.237,13.237,0,0,1,358.421,5.723h0Zm5.186-22.943a9.237,9.237,0,0,1,9.241,9.235,9.237,9.237,0,0,1-9.241,9.235,9.235,9.235,0,0,1-9.238-9.235,9.235,9.235,0,0,1,9.238-9.235h0Zm29.161,28.829a11.612,11.612,0,1,1-11.617,11.612,11.609,11.609,0,0,1,11.617-11.612h0Zm-3.694-23.221a9.238,9.238,0,0,1,9.24,9.235,9.239,9.239,0,0,1-9.24,9.237,9.239,9.239,0,0,1-9.24-9.237,9.239,9.239,0,0,1,9.24-9.235h0Zm28.77,6.86A11.61,11.61,0,1,1,406.227,6.86,11.609,11.609,0,0,1,417.844-4.752h0ZM211.754,257.059a3.847,3.847,0,1,1,3.846-3.846,3.847,3.847,0,0,1-3.846,3.846h0Zm218.891-235.6a13.771,13.771,0,1,1-13.778,13.773,13.769,13.769,0,0,1,13.778-13.773h0ZM447.4,2.973A7.324,7.324,0,1,1,440.07,10.3,7.326,7.326,0,0,1,447.4,2.973h0Zm13.459,19.461a9.235,9.235,0,1,1-9.23,9.235,9.236,9.236,0,0,1,9.23-9.235h0Zm-3.5,23.931a8.263,8.263,0,1,1-8.263,8.263,8.259,8.259,0,0,1,8.263-8.263h0Zm29.757-15.226a14.647,14.647,0,1,1-14.642,14.648,14.653,14.653,0,0,1,14.642-14.648h0Zm-5.4,33.434a13.413,13.413,0,1,1-13.418,13.413,13.407,13.407,0,0,1,13.418-13.413h0Zm31.662-8.625a11.611,11.611,0,1,1-11.607,11.612,11.607,11.607,0,0,1,11.607-11.612h0Zm-6.03,27.172a5.417,5.417,0,1,1-5.412,5.417,5.42,5.42,0,0,1,5.412-5.417h0ZM291.476,55.644a10.647,10.647,0,1,1-10.647,10.647,10.647,10.647,0,0,1,10.647-10.647h0ZM315.6,68.619a11.612,11.612,0,1,1-11.612,11.612A11.61,11.61,0,0,1,315.6,68.619h0ZM316.63,42.03a10.281,10.281,0,1,1-10.282,10.28A10.279,10.279,0,0,1,316.63,42.03h0Zm34.323-4.057a9.335,9.335,0,1,1-9.335,9.335,9.334,9.334,0,0,1,9.335-9.335h0ZM339.071,60.691A8.313,8.313,0,1,1,330.757,69a8.312,8.312,0,0,1,8.314-8.314h0ZM378.826,35.2a11.612,11.612,0,1,1-11.607,11.612A11.609,11.609,0,0,1,378.826,35.2h0Zm10.125,27.88a8.312,8.312,0,1,1-8.314,8.311,8.313,8.313,0,0,1,8.314-8.311h0Zm17.307-22.3a10.8,10.8,0,1,1-10.8,10.8,10.8,10.8,0,0,1,10.8-10.8h0Zm29.007,14.341a7.429,7.429,0,1,1-7.429,7.429,7.428,7.428,0,0,1,7.429-7.429h0ZM416.4,66.906a11.611,11.611,0,1,1-11.616,11.612A11.61,11.61,0,0,1,416.4,66.906h0Zm36.416,3.207A10.383,10.383,0,1,1,442.436,80.5a10.384,10.384,0,0,1,10.383-10.383h0ZM433.052,88.859a7.662,7.662,0,1,1-7.655,7.663,7.659,7.659,0,0,1,7.655-7.663h0Zm38.237,6.588a10.916,10.916,0,1,1-10.918,10.915,10.915,10.915,0,0,1,10.918-10.915h0Zm-9.631,24.773a11.611,11.611,0,1,1-11.607,11.612,11.61,11.61,0,0,1,11.607-11.612h0ZM498.289,99.1a9.236,9.236,0,1,1-9.24,9.238,9.237,9.237,0,0,1,9.24-9.238h0ZM259.728,222.807l-2.9,12.8a20.9,20.9,0,0,0,15.717,24.927l11.555,2.619,2.9-12.8a20.9,20.9,0,0,0-15.715-24.927l-11.557-2.619h0Zm-35.366,24.878a5.357,5.357,0,1,1,5.358-5.358,5.358,5.358,0,0,1-5.358,5.358h0Zm-11.4,20.621,8.469-10.03A20.9,20.9,0,0,1,250.8,255.8l9.052,7.645-8.468,10.029a20.9,20.9,0,0,1-29.361,2.475l-9.056-7.642h0ZM363.3,62.151a8.416,8.416,0,1,1-8.415,8.415,8.414,8.414,0,0,1,8.415-8.415h0ZM531.545,83.33a7.324,7.324,0,1,1-7.326,7.324,7.325,7.325,0,0,1,7.326-7.324h0Zm-85.106,20.557a7.875,7.875,0,1,1-7.882,7.874,7.876,7.876,0,0,1,7.882-7.874h0ZM269.834,46.5a7.324,7.324,0,1,1-7.32,7.323,7.326,7.326,0,0,1,7.32-7.323h0Zm66.047,232.108A8.016,8.016,0,1,1,343.9,270.6a8.015,8.015,0,0,1-8.019,8.014h0Zm22.962-.183a5.752,5.752,0,1,1,5.752-5.752,5.751,5.751,0,0,1-5.752,5.752h0Zm11.895,9.376a3.847,3.847,0,1,1,3.848-3.845,3.851,3.851,0,0,1-3.848,3.845h0Zm-72.11-29.888a3.847,3.847,0,1,1,3.845-3.846,3.845,3.845,0,0,1-3.845,3.846h0ZM518.066,97.358a5.692,5.692,0,1,1-5.691,5.692,5.688,5.688,0,0,1,5.691-5.692h0ZM186.717,176.725h38.345a2.975,2.975,0,0,1,2.966,2.966v20.525a2.976,2.976,0,0,1-2.966,2.968H186.717a2.976,2.976,0,0,1-2.969-2.968V179.691a2.976,2.976,0,0,1,2.969-2.966h0Zm49.275,8.172h26.5a2.055,2.055,0,0,1,2.05,2.051v14.187a2.053,2.053,0,0,1-2.05,2.049h-26.5a2.053,2.053,0,0,1-2.051-2.049V186.948a2.055,2.055,0,0,1,2.051-2.051h0ZM258.8,168.058v10.3a1.486,1.486,0,0,1-1.481,1.482H238.145a1.488,1.488,0,0,1-1.484-1.482V166.17a1.489,1.489,0,0,1,1.484-1.484H257.32a1.487,1.487,0,0,1,1.481,1.484v1.888h0ZM180.582,140.2h46.787a3.633,3.633,0,0,1,3.625,3.622v25.043a3.635,3.635,0,0,1-3.625,3.624H180.582a3.634,3.634,0,0,1-3.622-3.624V143.818a3.633,3.633,0,0,1,3.622-3.622h0Zm98.775,17.387a2.976,2.976,0,0,1-2.968,2.969h-36.76a2.978,2.978,0,0,1-2.968-2.969v-29.59a2.976,2.976,0,0,1,2.968-2.969h36.76a2.978,2.978,0,0,1,2.968,2.969v29.59h0Zm-65.951-30.457H201.069a0.955,0.955,0,0,0-.952.954v6.6a0.955,0.955,0,0,0,.952.954h12.337a0.956,0.956,0,0,0,.954-0.954v-6.6a0.956,0.956,0,0,0-.954-0.954h0Zm17.04,1.165H219.8a0.823,0.823,0,0,0-.823.823v5.7a0.824,0.824,0,0,0,.823.823h10.645a0.824,0.824,0,0,0,.823-0.823v-5.7a0.824,0.824,0,0,0-.823-0.823h0Zm-51.333-3.267h15.38a1.193,1.193,0,0,1,1.191,1.191v8.232a1.194,1.194,0,0,1-1.191,1.193h-15.38a1.2,1.2,0,0,1-1.189-1.193v-8.232a1.193,1.193,0,0,1,1.189-1.191h0Zm96.97,77.368V192.167a0.8,0.8,0,0,0-.792-0.793h-5.472a0.8,0.8,0,0,0-.792.793v10.225a0.792,0.792,0,0,0,.792.792h5.472a0.792,0.792,0,0,0,.792-0.792h0Zm0-5.9V186.263a0.793,0.793,0,0,0-.792-0.79h-5.472a0.793,0.793,0,0,0-.792.79v10.225a0.793,0.793,0,0,0,.792.793h5.472a0.793,0.793,0,0,0,.792-0.793h0Zm-0.407-17.659V165.7a1.019,1.019,0,0,0-1.016-1.016H264.268a1.019,1.019,0,0,0-1.016,1.016v13.127a1.018,1.018,0,0,0,1.016,1.014H274.66a1.018,1.018,0,0,0,1.016-1.014h0Zm-50.344,28.387h19.18a1.2,1.2,0,0,1,1.2,1.2V216.7a1.2,1.2,0,0,1-1.2,1.2H215.6a1.2,1.2,0,0,1-1.2-1.2v-8.289a1.2,1.2,0,0,1,1.2-1.2h9.732ZM160.764,106.8h15.352a1.188,1.188,0,0,1,1.186,1.188v8.217a1.188,1.188,0,0,1-1.186,1.188H160.764a1.191,1.191,0,0,1-1.189-1.188v-8.217a1.191,1.191,0,0,1,1.189-1.188h0Zm24.263-2.485h18.951a1.468,1.468,0,0,1,1.466,1.466V115.93a1.469,1.469,0,0,1-1.466,1.467H185.027a1.469,1.469,0,0,1-1.466-1.467V105.785a1.468,1.468,0,0,1,1.466-1.466h0Zm-9.081-9.8h11.039a0.859,0.859,0,0,1,.856.854v5.912a0.858,0.858,0,0,1-.856.854H175.946a0.856,0.856,0,0,1-.854-0.854V95.369a0.857,0.857,0,0,1,.854-0.854h0Zm19.141-12.847h27.436a2.127,2.127,0,0,1,2.125,2.122V98.474a2.128,2.128,0,0,1-2.125,2.123H195.087a2.127,2.127,0,0,1-2.122-2.123V83.791a2.126,2.126,0,0,1,2.122-2.122h0Zm38.2,10.725h36.168a2.8,2.8,0,0,1,2.8,2.8v19.362a2.8,2.8,0,0,1-2.8,2.8H233.283a2.807,2.807,0,0,1-2.8-2.8V95.192a2.807,2.807,0,0,1,2.8-2.8h0Zm-1.556-17.1h18.951a1.469,1.469,0,0,1,1.466,1.466V86.9a1.469,1.469,0,0,1-1.466,1.466H231.727A1.469,1.469,0,0,1,230.26,86.9V76.755a1.469,1.469,0,0,1,1.467-1.466h0Zm25.912,3.431h15.352a1.19,1.19,0,0,1,1.188,1.186v8.219a1.19,1.19,0,0,1-1.188,1.186H257.639a1.188,1.188,0,0,1-1.186-1.186V79.906a1.188,1.188,0,0,1,1.186-1.186h0Zm-41.27,30.62h11.6a0.9,0.9,0,0,1,.9.9v6.21a0.9,0.9,0,0,1-.9.9h-11.6a0.9,0.9,0,0,1-.9-0.9v-6.21a0.9,0.9,0,0,1,.9-0.9h0Zm5.33-6.15h6.388a0.494,0.494,0,0,1,.494.493V107.1a0.494,0.494,0,0,1-.494.494H221.7a0.494,0.494,0,0,1-.493-0.494v-3.419a0.493,0.493,0,0,1,.493-0.493h0Zm-8.677,0h6.388a0.494,0.494,0,0,1,.494.493V107.1a0.494,0.494,0,0,1-.494.494h-6.388a0.494,0.494,0,0,1-.5-0.494v-3.419a0.494,0.494,0,0,1,.5-0.493h0Zm-5.124,13.6v-7.244a0.56,0.56,0,0,1,.558-0.56h3.88a0.561,0.561,0,0,1,.56.56v7.244a0.561,0.561,0,0,1-.56.561h-3.88a0.56,0.56,0,0,1-.558-0.561h0Zm0.389-13.6h6.387a0.494,0.494,0,0,1,.494.493V107.1a0.494,0.494,0,0,1-.494.494h-6.387a0.494,0.494,0,0,1-.494-0.494v-3.419a0.494,0.494,0,0,1,.494-0.493h0Zm69.9,1.219h18.743a1.454,1.454,0,0,1,1.451,1.451v10.032a1.453,1.453,0,0,1-1.451,1.451H278.182a1.453,1.453,0,0,1-1.451-1.451V105.86a1.454,1.454,0,0,1,1.451-1.451h0Zm-0.56-3.463V89.81a0.863,0.863,0,0,1,.861-0.862h5.963a0.864,0.864,0,0,1,.862.862v11.136a0.864,0.864,0,0,1-.862.862h-5.963a0.863,0.863,0,0,1-.861-0.862h0ZM185.8,91.624V84.38a0.56,0.56,0,0,1,.558-0.561h3.88a0.562,0.562,0,0,1,.56.561v7.244a0.562,0.562,0,0,1-.56.561h-3.88a0.56,0.56,0,0,1-.558-0.561h0Zm24.857-22.872h15.769a1.221,1.221,0,0,1,1.22,1.22v8.44a1.221,1.221,0,0,1-1.22,1.22H210.653a1.222,1.222,0,0,1-1.219-1.22v-8.44a1.222,1.222,0,0,1,1.219-1.22h0Zm-10.747,5.66h7.148a0.551,0.551,0,0,1,.551.553v3.828a0.551,0.551,0,0,1-.551.551h-7.148a0.552,0.552,0,0,1-.553-0.551V74.965a0.552,0.552,0,0,1,.553-0.553h0Zm33.575-15.7h17.953a1.392,1.392,0,0,1,1.389,1.389v9.61a1.393,1.393,0,0,1-1.389,1.389H233.481a1.393,1.393,0,0,1-1.389-1.389V60.1a1.392,1.392,0,0,1,1.389-1.389h0Zm-14.555,1.05h10.133a0.787,0.787,0,0,1,.785.785v5.423a0.787,0.787,0,0,1-.785.784H218.926a0.786,0.786,0,0,1-.784-0.784V60.542a0.786,0.786,0,0,1,.784-0.785h0ZM211.484,66.3V59a0.565,0.565,0,0,1,.564-0.564h3.907a0.566,0.566,0,0,1,.563.564v7.3a0.565,0.565,0,0,1-.563.564h-3.907a0.563,0.563,0,0,1-.564-0.564h0Zm10.643-17.665h10.891a0.844,0.844,0,0,1,.841.844v5.831a0.843,0.843,0,0,1-.841.841H222.127a0.844,0.844,0,0,1-.844-0.841V49.478a0.844,0.844,0,0,1,.844-0.844h0Zm14.541,2.318h6.388a0.5,0.5,0,0,1,.494.494v3.419a0.5,0.5,0,0,1-.494.494h-6.388a0.492,0.492,0,0,1-.493-0.494V51.445a0.492,0.492,0,0,1,.493-0.494h0Zm-45.5,156.265h18.418a1.428,1.428,0,0,1,1.425,1.425v9.86a1.43,1.43,0,0,1-1.425,1.425H191.165a1.43,1.43,0,0,1-1.423-1.425v-9.86a1.428,1.428,0,0,1,1.423-1.425h0Zm18.809,17.7H196.585a1.038,1.038,0,0,0-1.037,1.034v7.169a1.037,1.037,0,0,0,1.037,1.035h13.389a1.036,1.036,0,0,0,1.034-1.035v-7.169a1.037,1.037,0,0,0-1.034-1.034h0Zm11.55-3.6h-6.168a0.959,0.959,0,0,0-.954.954v4.759a0.958,0.958,0,0,0,.954.952h6.168a0.956,0.956,0,0,0,.955-0.952v-4.759a0.959,0.959,0,0,0-.955-0.954h0Zm32.549-14.094a0.829,0.829,0,0,1,.826.828v5.718a0.828,0.828,0,0,1-.826.826h-4.607a0.826,0.826,0,0,1-.825-0.826v-5.718a0.828,0.828,0,0,1,.825-0.828h4.607Zm230.366-86.825a5.692,5.692,0,1,1-5.7,5.693,5.694,5.694,0,0,1,5.7-5.693h0Z" transform="translate(-159.563)"/>
</svg>
