<svg xmlns="http://www.w3.org/2000/svg" width="379.312" height="355.094"><path d="M280.044 238.3v-14.629a23.294 23.294 0 0 1 23.224-23.223h13.211v14.631a23.294 23.294 0 0 1-23.223 23.221h-13.212zm41.1 47.054l-14.622-.627a23.291 23.291 0 0 1-22.2-24.194l.566-13.2 14.611.625a23.294 23.294 0 0 1 22.216 24.2l-.566 13.2zm41.056-60.411l-6.73 12.988a23.292 23.292 0 0 1-31.311 9.92l-11.722-6.078 6.729-12.985a23.294 23.294 0 0 1 31.312-9.919l11.72 6.078zm-14.763 59.139l-8.118-2.132a13.368 13.368 0 0 1-9.518-16.281l1.924-7.334 8.129 2.132a13.37 13.37 0 0 1 9.507 16.281l-1.924 7.334zm29.151-16.5l-8.036 2.441a13.376 13.376 0 0 1-16.639-8.88l-2.2-7.255 8.037-2.44a13.371 13.371 0 0 1 16.638 8.879l2.2 7.255zm-5.865 41.251l-7.624-3.532a13.366 13.366 0 0 1-6.483-17.706l3.19-6.881 7.614 3.537a13.377 13.377 0 0 1 6.493 17.7l-3.19 6.878zm-79.056-18.128l8.448 11.944a23.294 23.294 0 0 1-5.546 32.372l-10.783 7.624-8.449-11.94a23.3 23.3 0 0 1 5.547-32.374l10.783-7.625zm-60.719-14.689l12.3-7.927a23.292 23.292 0 0 1 32.1 6.93l7.151 11.1-12.3 7.929a23.293 23.293 0 0 1-32.1-6.93l-7.151-11.1zm1.358 73.029l-2-14.493a23.283 23.283 0 0 1 19.828-26.177l13.078-1.8 2.007 14.49a23.3 23.3 0 0 1-19.839 26.183l-13.078 1.8zm-22.1-56.8l7.861-2.95a13.375 13.375 0 0 1 17.173 7.8l2.666 7.1-7.862 2.952a13.374 13.374 0 0 1-17.173-7.8l-2.665-7.1zm-14.269 30.305l5.155-6.637a13.37 13.37 0 0 1 18.707-2.353l5.988 4.653-5.145 6.632a13.381 13.381 0 0 1-18.716 2.356l-5.989-4.651zm-19.491-36l9.5-2.269a15.534 15.534 0 0 1 18.668 11.473l2.048 8.571-9.487 2.269a15.544 15.544 0 0 1-18.679-11.476l-2.047-8.568zm-3.409 21.85l1.229 14.58a23.289 23.289 0 0 1-21.194 25.087l-13.161 1.106-1.23-14.573a23.291 23.291 0 0 1 21.195-25.089l13.161-1.111zm-42.042-43.59l14.63.113a23.29 23.29 0 0 1 23.041 23.4l-.1 13.207-14.63-.116a23.292 23.292 0 0 1-23.041-23.4l.1-13.2zM92.288 328.6l5.623-13.506a23.294 23.294 0 0 1 30.368-12.515l12.193 5.078-5.623 13.508a23.291 23.291 0 0 1-30.368 12.508L92.288 328.6zm9.747-60.164l8.273 1.44a13.376 13.376 0 0 1 10.847 15.424l-1.3 7.47-8.275-1.443a13.373 13.373 0 0 1-10.848-15.424l1.3-7.47zM74.374 287.32l7.8-3.108a13.375 13.375 0 0 1 17.32 7.455l2.8 7.044-7.8 3.11a13.378 13.378 0 0 1-17.321-7.455l-2.8-7.046zm246.863 27.647a10.82 10.82 0 1 1 10.824-10.82 10.822 10.822 0 0 1-10.824 10.82zm-131.164 40.114a10.82 10.82 0 1 1 10.823-10.819 10.822 10.822 0 0 1-10.823 10.819zm23.757-2.238a8.319 8.319 0 1 1 8.314-8.319 8.321 8.321 0 0 1-8.314 8.319zm-26.921-31.594a5.754 5.754 0 1 1 5.752-5.752 5.754 5.754 0 0 1-5.752 5.752zM83.621 247.06a7.755 7.755 0 1 1 7.756-7.753 7.752 7.752 0 0 1-7.756 7.753zm186.668 13.616a5.752 5.752 0 1 1 5.752-5.752 5.757 5.757 0 0 1-5.752 5.752zM93.237 23.025A10.647 10.647 0 1 1 82.59 33.672a10.646 10.646 0 0 1 10.647-10.647zm36.168.481a13.431 13.431 0 1 1-13.428 13.431 13.431 13.431 0 0 1 13.428-13.431zm16.2-29.117a13.773 13.773 0 1 1-13.777 13.773 13.772 13.772 0 0 1 13.773-13.773zM112.865 6.86a9.235 9.235 0 1 1-9.235 9.235 9.233 9.233 0 0 1 9.235-9.235zm55.816 10.423A11.612 11.612 0 1 1 157.069 28.9a11.612 11.612 0 0 1 11.612-11.612zm5.145-29.69a9.236 9.236 0 0 1 9.235 9.238 9.236 9.236 0 0 1-9.235 9.237 9.239 9.239 0 0 1-9.238-9.237 9.239 9.239 0 0 1 9.238-9.238zm25.032 18.13a13.238 13.238 0 1 1-13.237 13.238 13.237 13.237 0 0 1 13.237-13.238zm5.186-22.943a9.237 9.237 0 0 1 9.241 9.235 9.237 9.237 0 0 1-9.241 9.235 9.235 9.235 0 0 1-9.238-9.235 9.235 9.235 0 0 1 9.238-9.235zm29.161 28.829a11.612 11.612 0 1 1-11.617 11.612 11.609 11.609 0 0 1 11.617-11.612zm-3.694-23.221a9.238 9.238 0 0 1 9.24 9.235 9.239 9.239 0 0 1-9.24 9.237 9.239 9.239 0 0 1-9.24-9.237 9.239 9.239 0 0 1 9.24-9.235zm28.77 6.86A11.61 11.61 0 1 1 246.664 6.86a11.609 11.609 0 0 1 11.617-11.612zM52.191 257.059a3.847 3.847 0 1 1 3.846-3.846 3.847 3.847 0 0 1-3.846 3.846zm218.891-235.6a13.771 13.771 0 1 1-13.778 13.773 13.769 13.769 0 0 1 13.778-13.773zm16.755-18.486a7.324 7.324 0 1 1-7.33 7.327 7.326 7.326 0 0 1 7.33-7.327zm13.459 19.461a9.235 9.235 0 1 1-9.23 9.235 9.236 9.236 0 0 1 9.23-9.235zm-3.5 23.931a8.263 8.263 0 1 1-8.263 8.263 8.259 8.259 0 0 1 8.263-8.263zm29.757-15.226a14.647 14.647 0 1 1-14.642 14.648 14.653 14.653 0 0 1 14.642-14.648zm-5.4 33.434a13.413 13.413 0 1 1-13.418 13.413 13.407 13.407 0 0 1 13.418-13.413zm31.662-8.625a11.611 11.611 0 1 1-11.607 11.612 11.607 11.607 0 0 1 11.607-11.612zm-6.03 27.172a5.417 5.417 0 1 1-5.412 5.417 5.42 5.42 0 0 1 5.412-5.417zM131.913 55.644a10.647 10.647 0 1 1-10.647 10.647 10.647 10.647 0 0 1 10.647-10.647zm24.124 12.975a11.612 11.612 0 1 1-11.612 11.612 11.61 11.61 0 0 1 11.612-11.612zm1.03-26.589a10.281 10.281 0 1 1-10.282 10.28 10.279 10.279 0 0 1 10.282-10.28zm34.323-4.057a9.335 9.335 0 1 1-9.335 9.335 9.334 9.334 0 0 1 9.335-9.335zm-11.882 22.718A8.313 8.313 0 1 1 171.194 69a8.312 8.312 0 0 1 8.314-8.314zM219.263 35.2a11.612 11.612 0 1 1-11.607 11.612A11.609 11.609 0 0 1 219.263 35.2zm10.125 27.88a8.312 8.312 0 1 1-8.314 8.311 8.313 8.313 0 0 1 8.314-8.311zm17.307-22.3a10.8 10.8 0 1 1-10.8 10.8 10.8 10.8 0 0 1 10.8-10.8zm29.007 14.341a7.429 7.429 0 1 1-7.429 7.429 7.428 7.428 0 0 1 7.429-7.429zm-18.865 11.785a11.611 11.611 0 1 1-11.616 11.612 11.61 11.61 0 0 1 11.616-11.612zm36.416 3.207a10.383 10.383 0 1 1-10.38 10.387 10.384 10.384 0 0 1 10.383-10.383zm-19.764 18.746a7.662 7.662 0 1 1-7.655 7.663 7.659 7.659 0 0 1 7.655-7.663zm38.237 6.588a10.916 10.916 0 1 1-10.918 10.915 10.915 10.915 0 0 1 10.918-10.915zm-9.631 24.773a11.611 11.611 0 1 1-11.607 11.612 11.61 11.61 0 0 1 11.607-11.612zm36.631-21.12a9.236 9.236 0 1 1-9.24 9.238 9.237 9.237 0 0 1 9.24-9.238zM100.165 222.807l-2.9 12.8a20.9 20.9 0 0 0 15.717 24.927l11.555 2.619 2.9-12.8a20.9 20.9 0 0 0-15.715-24.927l-11.557-2.619zm-35.366 24.878a5.357 5.357 0 1 1 5.358-5.358 5.358 5.358 0 0 1-5.358 5.358zm-11.4 20.621l8.469-10.03a20.9 20.9 0 0 1 29.369-2.476l9.052 7.645-8.468 10.029a20.9 20.9 0 0 1-29.361 2.475l-9.056-7.642zM203.737 62.151a8.416 8.416 0 1 1-8.415 8.415 8.414 8.414 0 0 1 8.415-8.415zM371.982 83.33a7.324 7.324 0 1 1-7.326 7.324 7.325 7.325 0 0 1 7.326-7.324zm-85.106 20.557a7.875 7.875 0 1 1-7.882 7.874 7.876 7.876 0 0 1 7.882-7.874zM110.271 46.5a7.324 7.324 0 1 1-7.32 7.323 7.326 7.326 0 0 1 7.32-7.323zm66.047 232.108a8.016 8.016 0 1 1 8.019-8.008 8.015 8.015 0 0 1-8.019 8.014zm22.962-.183a5.752 5.752 0 1 1 5.752-5.752 5.751 5.751 0 0 1-5.752 5.752zm11.895 9.376a3.847 3.847 0 1 1 3.848-3.845 3.851 3.851 0 0 1-3.848 3.845zm-72.11-29.888a3.847 3.847 0 1 1 3.845-3.846 3.845 3.845 0 0 1-3.845 3.846zM358.503 97.358a5.692 5.692 0 1 1-5.691 5.692 5.688 5.688 0 0 1 5.691-5.692zM27.154 176.725h38.345a2.975 2.975 0 0 1 2.966 2.966v20.525a2.976 2.976 0 0 1-2.966 2.968H27.154a2.976 2.976 0 0 1-2.969-2.968v-20.525a2.976 2.976 0 0 1 2.969-2.966zm49.275 8.172h26.5a2.055 2.055 0 0 1 2.05 2.051v14.187a2.053 2.053 0 0 1-2.05 2.049h-26.5a2.053 2.053 0 0 1-2.051-2.049v-14.187a2.055 2.055 0 0 1 2.051-2.051zm22.808-16.839v10.3a1.486 1.486 0 0 1-1.481 1.482H78.582a1.488 1.488 0 0 1-1.484-1.482V166.17a1.489 1.489 0 0 1 1.484-1.484h19.175a1.487 1.487 0 0 1 1.481 1.484v1.888zM21.019 140.2h46.787a3.633 3.633 0 0 1 3.625 3.622v25.043a3.635 3.635 0 0 1-3.625 3.624H21.019a3.634 3.634 0 0 1-3.622-3.624v-25.047a3.633 3.633 0 0 1 3.622-3.622zm98.775 17.387a2.976 2.976 0 0 1-2.968 2.969h-36.76a2.978 2.978 0 0 1-2.968-2.969v-29.59a2.976 2.976 0 0 1 2.968-2.969h36.76a2.978 2.978 0 0 1 2.968 2.969v29.59zM53.843 127.13H41.506a.955.955 0 0 0-.952.954v6.6a.955.955 0 0 0 .952.954h12.337a.956.956 0 0 0 .954-.954v-6.6a.956.956 0 0 0-.954-.954zm17.04 1.165H60.237a.823.823 0 0 0-.823.823v5.7a.824.824 0 0 0 .823.823h10.645a.824.824 0 0 0 .823-.823v-5.7a.824.824 0 0 0-.823-.823zm-51.333-3.267h15.38a1.193 1.193 0 0 1 1.191 1.191v8.232a1.194 1.194 0 0 1-1.191 1.193H19.55a1.2 1.2 0 0 1-1.189-1.193v-8.232a1.193 1.193 0 0 1 1.189-1.191zm96.97 77.368v-10.229a.8.8 0 0 0-.792-.793h-5.472a.8.8 0 0 0-.792.793v10.225a.792.792 0 0 0 .792.792h5.472a.792.792 0 0 0 .792-.792zm0-5.9v-10.233a.793.793 0 0 0-.792-.79h-5.472a.793.793 0 0 0-.792.79v10.225a.793.793 0 0 0 .792.793h5.472a.793.793 0 0 0 .792-.793zm-.407-17.659V165.7a1.019 1.019 0 0 0-1.016-1.016h-10.392a1.019 1.019 0 0 0-1.016 1.016v13.127a1.018 1.018 0 0 0 1.016 1.014h10.392a1.018 1.018 0 0 0 1.016-1.014zm-50.344 28.387h19.18a1.2 1.2 0 0 1 1.2 1.2v8.276a1.2 1.2 0 0 1-1.2 1.2H56.037a1.2 1.2 0 0 1-1.2-1.2v-8.289a1.2 1.2 0 0 1 1.2-1.2h9.732zM1.201 106.8h15.352a1.188 1.188 0 0 1 1.186 1.188v8.217a1.188 1.188 0 0 1-1.186 1.188H1.201a1.191 1.191 0 0 1-1.189-1.188v-8.217a1.191 1.191 0 0 1 1.189-1.188zm24.263-2.485h18.951a1.468 1.468 0 0 1 1.466 1.466v10.149a1.469 1.469 0 0 1-1.466 1.467H25.464a1.469 1.469 0 0 1-1.466-1.467v-10.145a1.468 1.468 0 0 1 1.466-1.466zm-9.081-9.8h11.039a.859.859 0 0 1 .856.854v5.912a.858.858 0 0 1-.856.854H16.383a.856.856 0 0 1-.854-.854v-5.912a.857.857 0 0 1 .854-.854zm19.141-12.847H62.96a2.127 2.127 0 0 1 2.125 2.122v14.684a2.128 2.128 0 0 1-2.125 2.123H35.524a2.127 2.127 0 0 1-2.122-2.123V83.791a2.126 2.126 0 0 1 2.122-2.122zm38.2 10.725h36.168a2.8 2.8 0 0 1 2.8 2.8v19.362a2.8 2.8 0 0 1-2.8 2.8H73.72a2.807 2.807 0 0 1-2.8-2.8V95.192a2.807 2.807 0 0 1 2.8-2.8zm-1.556-17.1h18.951a1.469 1.469 0 0 1 1.466 1.466V86.9a1.469 1.469 0 0 1-1.466 1.466H72.164a1.469 1.469 0 0 1-1.467-1.466V76.755a1.469 1.469 0 0 1 1.467-1.466zm25.912 3.431h15.352a1.19 1.19 0 0 1 1.188 1.186v8.219a1.19 1.19 0 0 1-1.188 1.186H98.076a1.188 1.188 0 0 1-1.186-1.186v-8.223a1.188 1.188 0 0 1 1.186-1.186zm-41.27 30.62h11.6a.9.9 0 0 1 .9.9v6.21a.9.9 0 0 1-.9.9h-11.6a.9.9 0 0 1-.9-.9v-6.21a.9.9 0 0 1 .9-.9zm5.33-6.15h6.388a.494.494 0 0 1 .494.493v3.413a.494.494 0 0 1-.494.494h-6.391a.494.494 0 0 1-.493-.494v-3.419a.493.493 0 0 1 .493-.493zm-8.677 0h6.388a.494.494 0 0 1 .494.493v3.413a.494.494 0 0 1-.494.494h-6.388a.494.494 0 0 1-.5-.494v-3.419a.494.494 0 0 1 .5-.493zm-5.124 13.6v-7.244a.56.56 0 0 1 .558-.56h3.88a.561.561 0 0 1 .56.56v7.244a.561.561 0 0 1-.56.561h-3.88a.56.56 0 0 1-.558-.561zm.389-13.6h6.387a.494.494 0 0 1 .494.493v3.413a.494.494 0 0 1-.494.494h-6.387a.494.494 0 0 1-.494-.494v-3.419a.494.494 0 0 1 .494-.493zm69.9 1.219h18.743a1.454 1.454 0 0 1 1.451 1.451v10.032a1.453 1.453 0 0 1-1.451 1.451h-18.752a1.453 1.453 0 0 1-1.451-1.451V105.86a1.454 1.454 0 0 1 1.451-1.451zm-.56-3.463V89.81a.863.863 0 0 1 .861-.862h5.963a.864.864 0 0 1 .862.862v11.136a.864.864 0 0 1-.862.862h-5.963a.863.863 0 0 1-.861-.862zm-91.831-9.326V84.38a.56.56 0 0 1 .558-.561h3.88a.562.562 0 0 1 .56.561v7.244a.562.562 0 0 1-.56.561h-3.88a.56.56 0 0 1-.558-.561zm24.857-22.872h15.769a1.221 1.221 0 0 1 1.22 1.22v8.44a1.221 1.221 0 0 1-1.22 1.22H51.09a1.222 1.222 0 0 1-1.219-1.22v-8.44a1.222 1.222 0 0 1 1.219-1.22zm-10.747 5.66h7.148a.551.551 0 0 1 .551.553v3.828a.551.551 0 0 1-.551.551h-7.148a.552.552 0 0 1-.553-.551v-3.828a.552.552 0 0 1 .553-.553zm33.575-15.7h17.953a1.392 1.392 0 0 1 1.389 1.389v9.61a1.393 1.393 0 0 1-1.389 1.389H73.918a1.393 1.393 0 0 1-1.389-1.389V60.1a1.392 1.392 0 0 1 1.389-1.389zm-14.555 1.05H69.5a.787.787 0 0 1 .785.785v5.423a.787.787 0 0 1-.785.784H59.363a.786.786 0 0 1-.784-.784v-5.428a.786.786 0 0 1 .784-.785zM51.921 66.3V59a.565.565 0 0 1 .564-.564h3.907a.566.566 0 0 1 .563.564v7.3a.565.565 0 0 1-.563.564h-3.907a.563.563 0 0 1-.564-.564zm10.643-17.665h10.891a.844.844 0 0 1 .841.844v5.831a.843.843 0 0 1-.841.841H62.564a.844.844 0 0 1-.844-.841v-5.832a.844.844 0 0 1 .844-.844zm14.541 2.318h6.388a.5.5 0 0 1 .494.494v3.419a.5.5 0 0 1-.494.494h-6.388a.492.492 0 0 1-.493-.494v-3.421a.492.492 0 0 1 .493-.494zm-45.5 156.265h18.418a1.428 1.428 0 0 1 1.425 1.425v9.86a1.43 1.43 0 0 1-1.425 1.425H31.602a1.43 1.43 0 0 1-1.423-1.425v-9.86a1.428 1.428 0 0 1 1.423-1.425zm18.809 17.7H37.022a1.038 1.038 0 0 0-1.037 1.034v7.169a1.037 1.037 0 0 0 1.037 1.035h13.389a1.036 1.036 0 0 0 1.034-1.035v-7.169a1.037 1.037 0 0 0-1.034-1.034zm11.55-3.6h-6.168a.959.959 0 0 0-.954.954v4.759a.958.958 0 0 0 .954.952h6.168a.956.956 0 0 0 .955-.952v-4.759a.959.959 0 0 0-.955-.954zm32.549-14.094a.829.829 0 0 1 .826.828v5.718a.828.828 0 0 1-.826.826h-4.607a.826.826 0 0 1-.825-.826v-5.718a.828.828 0 0 1 .825-.828h4.607zm230.366-86.825a5.692 5.692 0 1 1-5.7 5.693 5.694 5.694 0 0 1 5.7-5.693z" fill="#3c2821" fill-rule="evenodd"/></svg>