<svg xmlns="http://www.w3.org/2000/svg" width="30" height="29" viewBox="0 0 29.125 29"><path fill-rule="evenodd" fill="#FFE987" d="M28.814 28.697c-.391.39-1.024.39-1.415 0l-5.837-5.889a12.902 12.902 0 0 1-8.545 3.226C5.828 26.034 0 20.206 0 13.017 0 5.828 5.828 0 13.017 0c7.189 0 12.986 5.828 12.986 13.017 0 3.187-1.143 6.103-3.038 8.366l5.849 5.9a1 1 0 0 1 0 1.414zM24 13c0-6.049-4.952-11-11-11C6.951 2 2 6.951 2 13c0 6.048 4.951 11 11 11 6.048 0 11-4.952 11-11zm-6 1h-4v4a1 1 0 0 1-2 0v-4H8a1 1 0 0 1 0-2h4V8a1 1 0 0 1 2 0v4h4a1 1 0 0 1 0 2z"/></svg>