<svg xmlns="http://www.w3.org/2000/svg" width="29.125" height="29" viewBox="0 0 29.125 29">
  <metadata><?xpacket begin="﻿" id="W5M0MpCehiHzreSzNTczkc9d"?>
<x:xmpmeta xmlns:x="adobe:ns:meta/" x:xmptk="Adobe XMP Core 5.6-c138 79.159824, 2016/09/14-01:09:01        ">
   <rdf:RDF xmlns:rdf="http://www.w3.org/1999/02/22-rdf-syntax-ns#">
      <rdf:Description rdf:about=""
            xmlns:xmp="http://ns.adobe.com/xap/1.0/"
            xmlns:xmpRights="http://ns.adobe.com/xap/1.0/rights/">
         <xmp:CreatorTool>Adobe Photoshop CS5.1 Windows</xmp:CreatorTool>
         <xmpRights:Marked>False</xmpRights:Marked>
      </rdf:Description>
   </rdf:RDF>
</x:xmpmeta>
                                                                                                    
                                                                                                    
                                                                                                    
                                                                                                    
                                                                                                    
                                                                                                    
                                                                                                    
                                                                                                    
                                                                                                    
                                                                                                    
                                                                                                    
                                                                                                    
                                                                                                    
                                                                                                    
                                                                                                    
                                                                                                    
                                                                                                    
                                                                                                    
                                                                                                    
                                                                                                    
                           
<?xpacket end="w"?></metadata>
<defs>
    <style>
      .cls-1 {
        fill: #ffe987;
        fill-rule: evenodd;
      }
    </style>
  </defs>
  <path id="Magnifier_" data-name="Magnifier +" class="cls-1" d="M596.814,426.7a1,1,0,0,1-1.415,0l-7.074-7.137a1,1,0,1,1,1.414-1.415l7.075,7.138A1,1,0,0,1,596.814,426.7Zm-15.8-28.7A13.017,13.017,0,1,1,568,411.017,12.991,12.991,0,0,1,581.017,398ZM581,400a11,11,0,1,1-11,11A11.034,11.034,0,0,1,581,400Zm-5,10h10a1,1,0,0,1,0,2H576A1,1,0,0,1,576,410Zm6-4v10a1,1,0,0,1-2,0V406A1,1,0,0,1,582,406Z" transform="translate(-568 -398)"/>
</svg>
